<svg width="219" height="46" viewBox="0 0 219 46" fill="none" xmlns="http://www.w3.org/2000/svg">
<path d="M15.9633 44.4727C12.4816 44.4727 9.54495 43.8207 7.15343 42.5166C4.76192 41.1773 2.68693 39.5208 0.928467 37.5471L7.46996 32.3661C8.4547 34.0578 9.66804 35.3619 11.11 36.2783C12.5519 37.1594 14.1521 37.5999 15.9106 37.5999C17.8097 37.5999 19.2517 37.0713 20.2364 36.0139C21.2563 34.9566 21.7663 33.7583 21.7663 32.419C21.7663 31.6083 21.5377 30.921 21.0805 30.3571C20.6233 29.7932 20.0254 29.3174 19.2868 28.9297C18.5483 28.5068 17.6866 28.1367 16.7019 27.8195C15.7523 27.5023 14.7676 27.1851 13.7477 26.8679C12.4464 26.4449 11.1451 25.9868 9.84388 25.4933C8.54262 24.9999 7.36445 24.3479 6.30937 23.5372C5.28946 22.6914 4.4454 21.6693 3.77718 20.4709C3.14413 19.2374 2.82761 17.7042 2.82761 15.8715C2.82761 14.3207 3.14413 12.8757 3.77718 11.5364C4.41023 10.1971 5.28946 9.03397 6.41488 8.04711C7.57546 7.02501 8.92948 6.232 10.4769 5.66808C12.0596 5.10416 13.7653 4.82221 15.5941 4.82221C17.1415 4.82221 18.5307 4.96318 19.7616 5.24514C21.0277 5.5271 22.1707 5.9148 23.1906 6.40822C24.2457 6.90165 25.1953 7.50082 26.0393 8.20571C26.9186 8.87537 27.7451 9.61551 28.5188 10.4261L22.6103 14.9199C20.9574 12.4527 18.6362 11.2192 15.6468 11.2192C13.8884 11.2192 12.5519 11.6421 11.6375 12.488C10.7231 13.3338 10.2659 14.3736 10.2659 15.6071C10.2659 16.3825 10.4769 17.0346 10.899 17.5632C11.321 18.0919 11.8837 18.5677 12.5871 18.9906C13.3256 19.3783 14.1697 19.7308 15.1193 20.048C16.0689 20.3652 17.0712 20.7 18.1263 21.0525C19.4275 21.4754 20.7288 21.9688 22.03 22.5328C23.3665 23.0614 24.5622 23.7663 25.6173 24.6475C26.7076 25.4933 27.5868 26.5507 28.255 27.8195C28.9232 29.0531 29.2573 30.6038 29.2573 32.4718C29.2573 33.9874 28.9584 35.4676 28.3605 36.9127C27.7626 38.3577 26.901 39.6442 25.7756 40.772C24.6502 41.8646 23.261 42.7633 21.608 43.4682C19.9551 44.1379 18.0735 44.4727 15.9633 44.4727Z" fill="white"/>
<path d="M29.8607 13.0166H35.1361V8.31145L42.3106 3.39479V13.0166H48.5884V19.4136H42.3106V30.9915C42.3106 32.3308 42.381 33.4234 42.5217 34.2693C42.6623 35.0799 42.9437 35.7143 43.3657 36.1725C43.8229 36.5955 44.456 36.8774 45.2649 37.0184C46.1089 37.1594 47.2168 37.2299 48.5884 37.2299V43.944H47.586C45.1945 43.944 43.1899 43.7326 41.5721 43.3096C39.9895 42.8867 38.7234 42.1818 37.7738 41.1949C36.8242 40.1728 36.1384 38.8511 35.7164 37.2299C35.3295 35.5734 35.1361 33.5115 35.1361 31.0444V19.4136H29.8607V13.0166Z" fill="white"/>
<path d="M92.9421 13.0166H100.011V17.6161C101.453 14.5498 104.091 13.0166 107.924 13.0166C109.05 13.0166 110.052 13.14 110.931 13.3867C111.846 13.6334 112.654 13.9506 113.358 14.3383L110.667 21.1053C110.14 20.7529 109.542 20.4709 108.874 20.2595C108.241 20.0128 107.414 19.8894 106.394 19.8894C104.319 19.8894 102.737 20.4886 101.646 21.6869C100.591 22.85 100.064 24.7708 100.064 27.4494V43.944H92.9421V13.0166Z" fill="white"/>
<path d="M116.189 13.0166H123.363V43.944H116.189V13.0166ZM115.292 5.45661C115.292 4.11731 115.696 3.04234 116.505 2.23171C117.314 1.38583 118.405 0.962891 119.776 0.962891C121.183 0.962891 122.273 1.38583 123.047 2.23171C123.856 3.04234 124.26 4.11731 124.26 5.45661C124.26 6.79592 123.856 7.87089 123.047 8.68152C122.273 9.49215 121.183 9.89747 119.776 9.89747C118.334 9.89747 117.226 9.49215 116.453 8.68152C115.679 7.87089 115.292 6.79592 115.292 5.45661Z" fill="white"/>
<path d="M143.297 44.5784C140.871 44.5784 138.655 44.1731 136.65 43.3625C134.646 42.5166 132.922 41.3712 131.48 39.9261C130.074 38.4811 128.966 36.7893 128.157 34.8508C127.383 32.8771 126.996 30.7801 126.996 28.5596C126.996 26.304 127.401 24.1893 128.21 22.2156C129.054 20.2418 130.197 18.5325 131.639 17.0874C133.081 15.6424 134.769 14.4969 136.703 13.651C138.673 12.8052 140.783 12.3822 143.034 12.3822C145.32 12.3822 147.43 12.7876 149.364 13.5982C151.334 14.3736 153.022 15.4838 154.428 16.9288C155.835 18.3386 156.925 20.0128 157.699 21.9512C158.508 23.8897 158.913 26.0044 158.913 28.2953V30.9915H133.802C134.294 33.1767 135.367 34.939 137.02 36.2783C138.673 37.6176 140.765 38.2872 143.297 38.2872C145.302 38.2872 147.043 37.7938 148.52 36.8069C149.997 35.8201 151.105 34.4984 151.844 32.8419L157.699 36.2254C156.363 38.7278 154.481 40.7544 152.055 42.3051C149.663 43.8207 146.744 44.5784 143.297 44.5784ZM143.034 18.6734C140.888 18.6734 139.024 19.255 137.442 20.4181C135.894 21.5811 134.804 23.1143 134.171 25.0175H151.685C151.158 22.9381 150.138 21.3697 148.626 20.3123C147.113 19.2197 145.249 18.6734 143.034 18.6734Z" fill="white"/>
<path d="M161.734 40.2962C161.734 38.9921 162.121 37.9524 162.895 37.177C163.668 36.3664 164.723 35.9611 166.06 35.9611C167.396 35.9611 168.434 36.3664 169.172 37.177C169.946 37.9524 170.333 38.9921 170.333 40.2962C170.333 41.565 169.946 42.6047 169.172 43.4154C168.399 44.1907 167.344 44.5784 166.007 44.5784C164.671 44.5784 163.616 44.1907 162.842 43.4154C162.103 42.6047 161.734 41.565 161.734 40.2962Z" fill="white"/>
<path d="M188.271 44.5784C186.407 44.5784 184.561 44.226 182.732 43.5211C180.938 42.7809 179.32 41.7236 177.878 40.3491C176.436 38.9745 175.276 37.3004 174.397 35.3267C173.517 33.3177 173.078 31.0444 173.078 28.5068C173.078 25.9339 173.5 23.6606 174.344 21.6869C175.223 19.6779 176.366 17.9862 177.773 16.6116C179.215 15.2371 180.85 14.1973 182.679 13.4924C184.543 12.7523 186.442 12.3822 188.376 12.3822C190.416 12.3822 192.298 12.7699 194.021 13.5453C195.744 14.3207 197.169 15.378 198.294 16.7174V13.0166H205.416V43.944H198.294V39.9261C197.169 41.3712 195.727 42.5166 193.968 43.3625C192.21 44.1731 190.311 44.5784 188.271 44.5784ZM189.432 38.0229C190.768 38.0229 191.999 37.7762 193.124 37.2827C194.25 36.7893 195.217 36.102 196.026 35.2209C196.835 34.3398 197.468 33.3177 197.925 32.1546C198.417 30.9915 198.663 29.7403 198.663 28.401C198.663 27.097 198.417 25.8634 197.925 24.7003C197.468 23.5372 196.835 22.5328 196.026 21.6869C195.217 20.8058 194.25 20.1185 193.124 19.6251C191.999 19.1316 190.768 18.8849 189.432 18.8849C188.13 18.8849 186.899 19.1316 185.739 19.6251C184.613 20.1185 183.629 20.7881 182.785 21.634C181.94 22.4799 181.272 23.4844 180.78 24.6475C180.323 25.8105 180.094 27.0617 180.094 28.401C180.094 29.7403 180.323 31.0092 180.78 32.2075C181.272 33.3706 181.94 34.3927 182.785 35.2738C183.629 36.1197 184.613 36.7893 185.739 37.2827C186.899 37.7762 188.13 38.0229 189.432 38.0229Z" fill="white"/>
<path d="M210 13.0166H217.175V43.944H210V13.0166ZM209.103 5.45661C209.103 4.11731 209.508 3.04234 210.317 2.23171C211.126 1.38583 212.216 0.962891 213.587 0.962891C214.994 0.962891 216.084 1.38583 216.858 2.23171C217.667 3.04234 218.072 4.11731 218.072 5.45661C218.072 6.79592 217.667 7.87089 216.858 8.68152C216.084 9.49215 214.994 9.89747 213.587 9.89747C212.146 9.89747 211.038 9.49215 210.264 8.68152C209.49 7.87089 209.103 6.79592 209.103 5.45661Z" fill="white"/>
<path fill-rule="evenodd" clip-rule="evenodd" d="M64.693 44.7133C66.7694 45.5711 68.9755 46 71.3114 46C73.6474 46 75.835 45.5711 77.8742 44.7133C79.9135 43.8182 81.6933 42.606 83.2135 41.0769C84.3235 39.9604 85.2545 38.7207 86.0066 37.3578L80.8328 30.3569H88.1123C88.1464 29.9072 88.1634 29.4526 88.1634 28.9929C88.1634 26.606 87.7185 24.3868 86.8286 22.3356C85.9758 20.247 84.7708 18.4381 83.2135 16.909C81.6933 15.3425 79.9135 14.1304 77.8742 13.2726C75.835 12.3775 73.6474 11.9299 71.3114 11.9299C68.9755 11.9299 66.7694 12.3775 64.693 13.2726C62.6537 14.1304 60.874 15.3425 59.3538 16.909C57.8336 18.4381 56.6285 20.247 55.7387 22.3356C54.8859 24.3868 54.4595 26.606 54.4595 28.9929C54.4595 31.3426 54.8859 33.5617 55.7387 35.6503C56.6285 37.7016 57.8336 39.5104 59.3538 41.0769C60.874 42.606 62.6537 43.8182 64.693 44.7133ZM75.0378 38.1118C73.8884 38.634 72.6462 38.8951 71.3114 38.8951C69.9766 38.8951 68.716 38.634 67.5295 38.1118C66.3801 37.5897 65.379 36.8811 64.5262 35.986C63.7104 35.0908 63.0616 34.0466 62.5796 32.8531C62.0976 31.6223 61.8565 30.3356 61.8565 28.9929C61.8565 27.613 62.0976 26.3262 62.5796 25.1328C63.0616 23.902 63.7104 22.8391 64.5262 21.9439C65.379 21.0488 66.3801 20.3402 67.5295 19.8181C68.716 19.2959 69.9766 19.0348 71.3114 19.0348C72.6462 19.0348 73.8884 19.2959 75.0378 19.8181C76.1872 20.3402 77.1883 21.0488 78.0411 21.9439C78.8939 22.8391 79.5613 23.902 80.0433 25.1328C80.5253 26.3262 80.7663 27.613 80.7663 28.9929C80.7663 30.3356 80.5253 31.6223 80.0433 32.8531C79.5613 34.0466 78.8939 35.0908 78.0411 35.986C77.1883 36.8811 76.1872 37.5897 75.0378 38.1118Z" fill="white"/>
<path fill-rule="evenodd" clip-rule="evenodd" d="M64.693 44.7133C66.7694 45.5711 68.9755 46 71.3114 46C73.6474 46 75.835 45.5711 77.8742 44.7133C79.9135 43.8182 81.6933 42.606 83.2135 41.0769C84.3235 39.9604 85.2545 38.7207 86.0066 37.3578L80.8328 30.3569H88.1123C88.1464 29.9072 88.1634 29.4526 88.1634 28.9929C88.1634 26.606 87.7185 24.3868 86.8286 22.3356C85.9758 20.247 84.7708 18.4381 83.2135 16.909C81.6933 15.3425 79.9135 14.1304 77.8742 13.2726C75.835 12.3775 73.6474 11.9299 71.3114 11.9299C68.9755 11.9299 66.7694 12.3775 64.693 13.2726C62.6537 14.1304 60.874 15.3425 59.3538 16.909C57.8336 18.4381 56.6285 20.247 55.7387 22.3356C54.8859 24.3868 54.4595 26.606 54.4595 28.9929C54.4595 31.3426 54.8859 33.5617 55.7387 35.6503C56.6285 37.7016 57.8336 39.5104 59.3538 41.0769C60.874 42.606 62.6537 43.8182 64.693 44.7133ZM75.0378 38.1118C73.8884 38.634 72.6462 38.8951 71.3114 38.8951C69.9766 38.8951 68.716 38.634 67.5295 38.1118C66.3801 37.5897 65.379 36.8811 64.5262 35.986C63.7104 35.0908 63.0616 34.0466 62.5796 32.8531C62.0976 31.6223 61.8565 30.3356 61.8565 28.9929C61.8565 27.613 62.0976 26.3262 62.5796 25.1328C63.0616 23.902 63.7104 22.8391 64.5262 21.9439C65.379 21.0488 66.3801 20.3402 67.5295 19.8181C68.716 19.2959 69.9766 19.0348 71.3114 19.0348C72.6462 19.0348 73.8884 19.2959 75.0378 19.8181C76.1872 20.3402 77.1883 21.0488 78.0411 21.9439C78.8939 22.8391 79.5613 23.902 80.0433 25.1328C80.5253 26.3262 80.7663 27.613 80.7663 28.9929C80.7663 30.3356 80.5253 31.6223 80.0433 32.8531C79.5613 34.0466 78.8939 35.0908 78.0411 35.986C77.1883 36.8811 76.1872 37.5897 75.0378 38.1118Z" fill="url(#paint0_linear_1_436)"/>
<defs>
<linearGradient id="paint0_linear_1_436" x1="-16.9146" y1="21.8289" x2="39.45" y2="149.958" gradientUnits="userSpaceOnUse">
<stop stop-color="#F52324"/>
<stop offset="0.4375" stop-color="#FF7BCF"/>
<stop offset="0.947917" stop-color="#4202F9"/>
</linearGradient>
</defs>
</svg>
