<svg width="127" height="37" viewBox="0 0 127 37" fill="none" xmlns="http://www.w3.org/2000/svg">
<path d="M121.929 0.724037C124.083 0.724037 125.836 2.42598 125.836 4.51756V31.6222C125.836 33.7138 124.083 35.4157 121.929 35.4157H5.60638C3.45209 35.4157 1.69912 33.7138 1.69912 31.6222V4.51756C1.69912 2.42598 3.45209 0.724037 5.60638 0.724037H121.929ZM121.929 0.000118256H5.60638C3.04845 0.000118256 0.953491 2.0341 0.953491 4.51756V31.6222C0.953491 34.1057 3.04845 36.1396 5.60638 36.1396H121.929C124.486 36.1396 126.581 34.1057 126.581 31.6222V4.51756C126.581 2.0341 124.486 0.000118256 121.929 0.000118256Z" fill="#A6A6A6"/>
<path d="M28.9899 17.8747C28.9629 14.9627 31.4457 13.5461 31.5592 13.4801C30.1531 11.4897 27.9737 11.2178 27.2078 11.1961C25.3774 11.0091 23.6018 12.2595 22.6694 12.2595C21.7183 12.2595 20.2825 11.2142 18.7349 11.2449C16.7435 11.2747 14.8805 12.3941 13.8587 14.1324C11.75 17.6768 13.3227 22.8854 15.343 25.7504C16.3536 27.1535 17.5345 28.7202 19.0802 28.665C20.5923 28.6045 21.1572 27.729 22.9821 27.729C24.7902 27.729 25.3206 28.665 26.897 28.6298C28.5199 28.6045 29.5417 27.2204 30.5169 25.8046C31.6848 24.1964 32.1538 22.6126 32.1724 22.5313C32.1343 22.5186 29.0206 21.3649 28.9899 17.8747Z" fill="white"/>
<path d="M26.012 9.31143C26.8254 8.32392 27.3818 6.98043 27.2274 5.61707C26.0502 5.66766 24.578 6.40762 23.7303 7.37345C22.9802 8.22453 22.3102 9.61952 22.4833 10.9314C23.8056 11.0272 25.1633 10.2836 26.012 9.31143Z" fill="white"/>
<path d="M46.5983 9.04304C46.5983 10.1064 46.2698 10.9069 45.6138 11.4445C45.0061 11.9405 44.1425 12.189 43.024 12.189C42.4694 12.189 41.9948 12.1655 41.5974 12.1185V6.30818C42.1157 6.22686 42.6741 6.1853 43.2771 6.1853C44.3426 6.1853 45.1457 6.41027 45.6873 6.86021C46.294 7.36887 46.5983 8.09618 46.5983 9.04304ZM45.5701 9.06924C45.5701 8.37988 45.3821 7.85133 45.0061 7.48271C44.6302 7.11499 44.0811 6.93068 43.3581 6.93068C43.051 6.93068 42.7895 6.95056 42.5727 6.99212V11.4093C42.6927 11.4273 42.9123 11.4355 43.2315 11.4355C43.9778 11.4355 44.5539 11.234 44.9596 10.831C45.3653 10.4281 45.5701 9.84082 45.5701 9.06924Z" fill="white"/>
<path d="M52.0506 9.97191C52.0506 10.6269 51.858 11.1636 51.4727 11.5846C51.0689 12.0174 50.5338 12.2333 49.8656 12.2333C49.2217 12.2333 48.7089 12.0264 48.3265 11.6108C47.9449 11.1961 47.7542 10.673 47.7542 10.0424C47.7542 9.38284 47.9505 8.84165 48.3451 8.42153C48.7396 8.00141 49.2701 7.79089 49.9382 7.79089C50.5822 7.79089 51.0996 7.99779 51.4913 8.41249C51.8636 8.81545 52.0506 9.33586 52.0506 9.97191ZM51.0391 10.0026C51.0391 9.60961 50.9516 9.27261 50.7776 8.99163C50.5729 8.65192 50.2816 8.48206 49.9029 8.48206C49.5111 8.48206 49.2133 8.65192 49.0086 8.99163C48.8336 9.27261 48.7471 9.61504 48.7471 10.0198C48.7471 10.4128 48.8346 10.7498 49.0086 11.0308C49.2198 11.3705 49.5139 11.5404 49.8935 11.5404C50.2658 11.5404 50.558 11.3678 50.7683 11.0218C50.9488 10.7354 51.0391 10.3956 51.0391 10.0026Z" fill="white"/>
<path d="M59.3612 7.87756L57.9886 12.1366H57.0953L56.5267 10.2872C56.3824 9.82548 56.2652 9.36651 56.174 8.91115H56.1563C56.0716 9.37916 55.9544 9.83723 55.8036 10.2872L55.1997 12.1366H54.2961L53.0054 7.87756H54.0076L54.5036 9.90228C54.6236 10.3811 54.7223 10.8374 54.8014 11.2693H54.8191C54.8916 10.9133 55.0117 10.4597 55.1811 9.91132L55.8036 7.87847H56.5983L57.1948 9.86795C57.3391 10.3531 57.4563 10.8202 57.5466 11.2702H57.5736C57.6396 10.832 57.7392 10.3649 57.8714 9.86795L58.4036 7.87847H59.3612V7.87756Z" fill="white"/>
<path d="M64.4169 12.1367H63.4417V9.69728C63.4417 8.94558 63.1476 8.56973 62.5576 8.56973C62.2682 8.56973 62.0346 8.67272 61.8532 8.87962C61.6736 9.08652 61.5824 9.33046 61.5824 9.60964V12.1358H60.6071V9.09465C60.6071 8.72061 60.595 8.31494 60.5718 7.87585H61.4288L61.4744 8.54172H61.5014C61.615 8.33482 61.7843 8.16406 62.0067 8.02763C62.271 7.86862 62.5669 7.78821 62.8908 7.78821C63.3002 7.78821 63.6408 7.9165 63.9116 8.174C64.2485 8.48932 64.4169 8.96003 64.4169 9.58525V12.1367V12.1367Z" fill="white"/>
<path d="M67.1064 12.1366H66.1321V5.92334H67.1064V12.1366Z" fill="white"/>
<path d="M72.848 9.97191C72.848 10.6269 72.6554 11.1636 72.2701 11.5846C71.8662 12.0174 71.3302 12.2333 70.663 12.2333C70.0181 12.2333 69.5054 12.0264 69.1238 11.6108C68.7423 11.1961 68.5515 10.673 68.5515 10.0424C68.5515 9.38284 68.7479 8.84165 69.1424 8.42153C69.537 8.00141 70.0674 7.79089 70.7346 7.79089C71.3795 7.79089 71.896 7.99779 72.2887 8.41249C72.6609 8.81545 72.848 9.33586 72.848 9.97191ZM71.8355 10.0026C71.8355 9.60961 71.748 9.27261 71.574 8.99163C71.3702 8.65192 71.078 8.48206 70.7002 8.48206C70.3075 8.48206 70.0097 8.65192 69.8059 8.99163C69.631 9.27261 69.5444 9.61504 69.5444 10.0198C69.5444 10.4128 69.6319 10.7498 69.8059 11.0308C70.0172 11.3705 70.3112 11.5404 70.6909 11.5404C71.0631 11.5404 71.3544 11.3678 71.5647 11.0218C71.7462 10.7354 71.8355 10.3956 71.8355 10.0026Z" fill="white"/>
<path d="M77.5679 12.1367H76.6922L76.6196 11.6461H76.5926C76.293 12.0373 75.8659 12.2333 75.3112 12.2333C74.8971 12.2333 74.5621 12.1041 74.3099 11.8476C74.081 11.6145 73.9666 11.3244 73.9666 10.9802C73.9666 10.4598 74.1899 10.0632 74.6394 9.78851C75.0879 9.51384 75.7188 9.37922 76.5312 9.38555V9.30604C76.5312 8.74498 76.2278 8.4649 75.6202 8.4649C75.1875 8.4649 74.8059 8.5706 74.4765 8.78021L74.2783 8.15861C74.6859 7.91377 75.1893 7.79089 75.783 7.79089C76.9295 7.79089 77.5046 8.37816 77.5046 9.5527V11.1212C77.5046 11.5467 77.526 11.8855 77.5679 12.1367ZM76.5554 10.673V10.0162C75.4797 9.99812 74.9418 10.2845 74.9418 10.8745C74.9418 11.0968 75.0032 11.263 75.1288 11.3741C75.2545 11.4853 75.4145 11.5404 75.6053 11.5404C75.8193 11.5404 76.0194 11.4744 76.2018 11.3434C76.3851 11.2115 76.4977 11.0444 76.5396 10.8393C76.5498 10.7932 76.5554 10.7372 76.5554 10.673Z" fill="white"/>
<path d="M83.1095 12.1366H82.244L82.1984 11.4527H82.1714C81.8951 11.9731 81.4242 12.2333 80.7626 12.2333C80.234 12.2333 79.7938 12.0318 79.4449 11.6289C79.0959 11.2259 78.9219 10.7028 78.9219 10.0604C78.9219 9.37105 79.1108 8.81269 79.4905 8.38625C79.858 7.98871 80.3084 7.78995 80.8444 7.78995C81.4335 7.78995 81.8457 7.98239 82.0802 8.36818H82.0989V5.92334H83.075V10.9892C83.075 11.4039 83.0862 11.7861 83.1095 12.1366ZM82.0989 10.3405V9.63035C82.0989 9.50748 82.0896 9.40809 82.0719 9.3322C82.017 9.10452 81.8988 8.91298 81.7192 8.75849C81.5377 8.60399 81.319 8.52629 81.0668 8.52629C80.703 8.52629 80.4182 8.66633 80.2089 8.94731C80.0013 9.2283 79.8962 9.58698 79.8962 10.0252C79.8962 10.4462 79.9958 10.7877 80.1958 11.0506C80.4071 11.3307 80.6918 11.4708 81.0482 11.4708C81.3684 11.4708 81.6243 11.3542 81.8188 11.1202C82.0067 10.9043 82.0989 10.6441 82.0989 10.3405Z" fill="white"/>
<path d="M91.4503 9.97191C91.4503 10.6269 91.2577 11.1636 90.8724 11.5846C90.4685 12.0174 89.9344 12.2333 89.2653 12.2333C88.6223 12.2333 88.1095 12.0264 87.7261 11.6108C87.3446 11.1961 87.1538 10.673 87.1538 10.0424C87.1538 9.38284 87.3502 8.84165 87.7447 8.42153C88.1393 8.00141 88.6697 7.79089 89.3388 7.79089C89.9818 7.79089 90.5002 7.99779 90.891 8.41249C91.2632 8.81545 91.4503 9.33586 91.4503 9.97191ZM90.4397 10.0026C90.4397 9.60961 90.3522 9.27261 90.1782 8.99163C89.9725 8.65192 89.6822 8.48206 89.3025 8.48206C88.9117 8.48206 88.6139 8.65192 88.4082 8.99163C88.2333 9.27261 88.1467 9.61504 88.1467 10.0198C88.1467 10.4128 88.2342 10.7498 88.4082 11.0308C88.6195 11.3705 88.9135 11.5404 89.2932 11.5404C89.6654 11.5404 89.9586 11.3678 90.1689 11.0218C90.3485 10.7354 90.4397 10.3956 90.4397 10.0026Z" fill="white"/>
<path d="M96.6941 12.1367H95.7197V9.69728C95.7197 8.94558 95.4257 8.56973 94.8348 8.56973C94.5454 8.56973 94.3118 8.67272 94.1313 8.87962C93.9507 9.08652 93.8605 9.33046 93.8605 9.60964V12.1358H92.8843V9.09465C92.8843 8.72061 92.8731 8.31494 92.8499 7.87585H93.706L93.7516 8.54172H93.7786C93.893 8.33482 94.0624 8.16406 94.2839 8.02763C94.5491 7.86862 94.8441 7.78821 95.1688 7.78821C95.5774 7.78821 95.918 7.9165 96.1888 8.174C96.5266 8.48932 96.6941 8.96003 96.6941 9.58525V12.1367V12.1367Z" fill="white"/>
<path d="M103.257 8.58683H102.183V10.6558C102.183 11.1816 102.374 11.4446 102.752 11.4446C102.927 11.4446 103.072 11.4301 103.187 11.4003L103.212 12.1186C103.019 12.189 102.766 12.2243 102.454 12.2243C102.069 12.2243 101.769 12.1104 101.553 11.8828C101.335 11.6551 101.227 11.272 101.227 10.7344V8.58683H100.586V7.87759H101.227V7.09698L102.183 6.81689V7.87669H103.256V8.58683H103.257Z" fill="white"/>
<path d="M108.42 12.1366H107.444V9.71528C107.444 8.95183 107.15 8.56966 106.561 8.56966C106.109 8.56966 105.8 8.79101 105.631 9.23372C105.602 9.32678 105.585 9.44062 105.585 9.57434V12.1357H104.611V5.92334H105.585V8.49015H105.604C105.911 8.02305 106.351 7.78995 106.921 7.78995C107.325 7.78995 107.659 7.91824 107.924 8.17574C108.255 8.49647 108.42 8.97352 108.42 9.60415V12.1366V12.1366Z" fill="white"/>
<path d="M113.746 9.80562C113.746 9.97548 113.733 10.1182 113.71 10.2348H110.785C110.798 10.6558 110.938 10.9765 111.208 11.1988C111.456 11.3976 111.775 11.497 112.166 11.497C112.599 11.497 112.993 11.4301 113.349 11.2955L113.501 11.9532C113.085 12.1285 112.596 12.2161 112.029 12.2161C111.35 12.2161 110.815 12.0219 110.428 11.6334C110.039 11.2449 109.846 10.7236 109.846 10.0694C109.846 9.42706 110.026 8.8922 110.388 8.46575C110.765 8.01039 111.276 7.78271 111.921 7.78271C112.552 7.78271 113.031 8.01039 113.355 8.46575C113.617 8.82715 113.746 9.27437 113.746 9.80562ZM112.815 9.56078C112.823 9.27979 112.759 9.03766 112.627 8.83347C112.457 8.57056 112.199 8.43865 111.85 8.43865C111.532 8.43865 111.273 8.56694 111.074 8.82444C110.912 9.02953 110.817 9.27437 110.785 9.56078H112.815Z" fill="white"/>
<path d="M50.8743 28.4636H48.761L47.6034 24.9318H43.5795L42.4768 28.4636H40.4193L44.4059 16.4399H46.8682L50.8743 28.4636ZM47.2544 23.4501L46.2075 20.3105C46.0968 19.9897 45.8892 19.2344 45.5831 18.0454H45.5459C45.424 18.5568 45.2276 19.3121 44.9577 20.3105L43.9294 23.4501H47.2544V23.4501Z" fill="white"/>
<path d="M61.1266 24.022C61.1266 25.4965 60.7162 26.662 59.8954 27.5176C59.1602 28.2793 58.2474 28.6596 57.1576 28.6596C55.9814 28.6596 55.1364 28.2495 54.6218 27.4291H54.5846V31.9962H52.6006V22.6478C52.6006 21.7208 52.5755 20.7695 52.5271 19.7937H54.2719L54.3827 21.1679H54.4199C55.0815 20.1325 56.0856 19.6157 57.4331 19.6157C58.4865 19.6157 59.3659 20.0196 60.0694 20.8282C60.7748 21.6377 61.1266 22.702 61.1266 24.022ZM59.1053 24.0925C59.1053 23.2486 58.9099 22.553 58.5172 22.0054C58.0882 21.4344 57.5122 21.1489 56.7901 21.1489C56.3006 21.1489 55.8558 21.308 55.4584 21.6215C55.0601 21.9377 54.7996 22.3506 54.6777 22.862C54.6162 23.1005 54.5855 23.2956 54.5855 23.4492V24.8948C54.5855 25.5254 54.7847 26.0576 55.183 26.4922C55.5813 26.9267 56.0987 27.1436 56.7352 27.1436C57.4824 27.1436 58.064 26.8635 58.48 26.3051C58.8969 25.7459 59.1053 25.0086 59.1053 24.0925Z" fill="white"/>
<path d="M71.3974 24.022C71.3974 25.4965 70.987 26.662 70.1653 27.5176C69.4311 28.2793 68.5182 28.6596 67.4284 28.6596C66.2522 28.6596 65.4072 28.2495 64.8936 27.4291H64.8563V31.9962H62.8723V22.6478C62.8723 21.7208 62.8472 20.7695 62.7988 19.7937H64.5437L64.6544 21.1679H64.6916C65.3523 20.1325 66.3564 19.6157 67.7048 19.6157C68.7573 19.6157 69.6367 20.0196 70.3421 20.8282C71.0447 21.6377 71.3974 22.702 71.3974 24.022ZM69.3762 24.0925C69.3762 23.2486 69.1798 22.553 68.7871 22.0054C68.3581 21.4344 67.7839 21.1489 67.0609 21.1489C66.5705 21.1489 66.1266 21.308 65.7283 21.6215C65.33 21.9377 65.0704 22.3506 64.9485 22.862C64.888 23.1005 64.8563 23.2956 64.8563 23.4492V24.8948C64.8563 25.5254 65.0555 26.0576 65.4519 26.4922C65.8502 26.9258 66.3676 27.1436 67.006 27.1436C67.7532 27.1436 68.3348 26.8635 68.7508 26.3051C69.1677 25.7459 69.3762 25.0086 69.3762 24.0925Z" fill="white"/>
<path d="M82.8806 25.0918C82.8806 26.1145 82.5149 26.9466 81.7807 27.589C80.9739 28.291 79.8506 28.6416 78.4073 28.6416C77.0747 28.6416 76.0064 28.3922 75.1978 27.8926L75.6575 26.2871C76.5285 26.7985 77.4842 27.0551 78.5255 27.0551C79.2728 27.0551 79.8544 26.8906 80.2722 26.5636C80.6882 26.2365 80.8957 25.7974 80.8957 25.2499C80.8957 24.762 80.7245 24.3509 80.3811 24.0175C80.0395 23.6841 79.4691 23.3742 78.6725 23.0878C76.5043 22.3027 75.4211 21.1526 75.4211 19.6401C75.4211 18.6517 75.8008 17.8413 76.5611 17.2107C77.3185 16.5791 78.3291 16.2638 79.5929 16.2638C80.7198 16.2638 81.656 16.4544 82.4032 16.8348L81.9072 18.4051C81.2093 18.0364 80.4202 17.8521 79.537 17.8521C78.8391 17.8521 78.2938 18.0193 77.9029 18.3518C77.5726 18.649 77.4069 19.0113 77.4069 19.4405C77.4069 19.9157 77.5959 20.3087 77.9755 20.6177C78.3059 20.9032 78.9061 21.2122 79.7771 21.5456C80.8426 21.9621 81.6253 22.4491 82.1287 23.0074C82.6303 23.564 82.8806 24.2606 82.8806 25.0918Z" fill="white"/>
<path d="M89.4402 21.2392H87.2534V25.4486C87.2534 26.5192 87.6386 27.0541 88.411 27.0541C88.7656 27.0541 89.0596 27.0243 89.2923 26.9646L89.3472 28.4274C88.9563 28.5692 88.4417 28.6406 87.8043 28.6406C87.0207 28.6406 86.4084 28.4084 85.9664 27.9449C85.5262 27.4805 85.3048 26.7017 85.3048 25.6076V21.2374H84.002V19.7919H85.3048V18.2044L87.2534 17.6334V19.7919H89.4402V21.2392Z" fill="white"/>
<path d="M99.307 24.0572C99.307 25.3899 98.9143 26.484 98.1308 27.3396C97.3091 28.2205 96.2185 28.6596 94.8589 28.6596C93.5486 28.6596 92.5055 28.2377 91.7275 27.3938C90.9495 26.5499 90.5605 25.4847 90.5605 24.2009C90.5605 22.8574 90.9607 21.7569 91.7638 20.9013C92.565 20.0448 93.6463 19.6166 95.0059 19.6166C96.3162 19.6166 97.3705 20.0385 98.1662 20.8833C98.9274 21.7027 99.307 22.7607 99.307 24.0572ZM97.2486 24.1196C97.2486 23.32 97.0727 22.6342 96.7163 22.0623C96.3003 21.3702 95.7057 21.0251 94.9352 21.0251C94.1377 21.0251 93.5319 21.3712 93.1159 22.0623C92.7595 22.6351 92.5836 23.3317 92.5836 24.1557C92.5836 24.9553 92.7595 25.641 93.1159 26.212C93.5449 26.9041 94.1442 27.2492 94.9175 27.2492C95.675 27.2492 96.2696 26.8969 96.6986 26.194C97.0644 25.6112 97.2486 24.9182 97.2486 24.1196Z" fill="white"/>
<path d="M105.756 21.4878C105.56 21.4525 105.35 21.4344 105.131 21.4344C104.433 21.4344 103.893 21.6901 103.513 22.2024C103.183 22.6542 103.017 23.2252 103.017 23.9145V28.4636H101.034L101.053 22.5241C101.053 21.5248 101.028 20.615 100.979 19.7946H102.707L102.779 21.4534H102.834C103.043 20.8833 103.374 20.4243 103.826 20.0801C104.268 19.7702 104.746 19.6157 105.26 19.6157C105.443 19.6157 105.609 19.6284 105.756 19.651V21.4878Z" fill="white"/>
<path d="M114.629 23.7185C114.629 24.0636 114.606 24.3545 114.556 24.5922H108.605C108.628 25.4487 108.915 26.1037 109.468 26.5554C109.97 26.9593 110.618 27.1617 111.415 27.1617C112.296 27.1617 113.1 27.0253 113.823 26.7515L114.134 28.0887C113.289 28.4464 112.291 28.6244 111.14 28.6244C109.756 28.6244 108.669 28.2287 107.878 27.4381C107.089 26.6476 106.693 25.586 106.693 24.2543C106.693 22.9469 107.061 21.8582 107.797 20.99C108.567 20.063 109.609 19.5995 110.919 19.5995C112.206 19.5995 113.18 20.063 113.842 20.99C114.366 21.7263 114.629 22.637 114.629 23.7185ZM112.737 23.2189C112.75 22.6479 112.621 22.1546 112.352 21.738C112.009 21.2023 111.481 20.9348 110.771 20.9348C110.122 20.9348 109.595 21.196 109.192 21.72C108.861 22.1365 108.665 22.6361 108.605 23.218H112.737V23.2189Z" fill="white"/>
</svg>
