<svg width="1079" height="1092" viewBox="0 0 1079 1092" fill="none" xmlns="http://www.w3.org/2000/svg">
<path opacity="0.25" fill-rule="evenodd" clip-rule="evenodd" d="M327.617 1050.76C394.09 1078.25 464.718 1092 539.5 1092C614.282 1092 684.316 1078.25 749.602 1050.76C814.888 1022.07 871.865 983.218 920.533 934.207C956.068 898.421 985.874 858.687 1009.95 815.006L844.317 590.614H1077.36C1078.45 576.202 1079 561.629 1079 546.896C1079 470.391 1064.76 399.264 1036.27 333.517C1008.97 266.575 970.388 208.598 920.533 159.586C871.865 109.379 814.888 70.5287 749.602 43.0345C684.316 14.3448 614.282 0 539.5 0C464.718 0 394.09 14.3448 327.617 43.0345C262.331 70.5287 205.354 109.379 156.686 159.586C108.019 208.598 69.4406 266.575 40.9521 333.517C13.6507 399.264 0 470.391 0 546.896C0 622.207 13.6507 693.333 40.9521 760.276C69.4406 826.023 108.019 884 156.686 934.207C205.354 983.218 262.331 1022.07 327.617 1050.76ZM658.795 839.172C621.998 855.908 582.233 864.276 539.5 864.276C496.767 864.276 456.409 855.908 418.424 839.172C381.627 822.437 349.577 799.724 322.276 771.034C296.161 742.345 275.388 708.874 259.957 670.621C244.526 631.172 236.81 589.931 236.81 546.896C236.81 502.667 244.526 461.425 259.957 423.172C275.388 383.724 296.161 349.655 322.276 320.965C349.577 292.276 381.627 269.563 418.424 252.828C456.409 236.092 496.767 227.724 539.5 227.724C582.233 227.724 621.998 236.092 658.795 252.828C695.593 269.563 727.643 292.276 754.944 320.965C782.245 349.655 803.612 383.724 819.043 423.172C834.474 461.425 842.19 502.667 842.19 546.896C842.19 589.931 834.474 631.172 819.043 670.621C803.612 708.874 782.245 742.345 754.944 771.034C727.643 799.724 695.593 822.437 658.795 839.172Z" fill="url(#paint0_linear_1_406)"/>
<defs>
<linearGradient id="paint0_linear_1_406" x1="-88.6636" y1="505.933" x2="1330.68" y2="1167.16" gradientUnits="userSpaceOnUse">
<stop stop-color="#F52324"/>
<stop offset="0.4375" stop-color="#FF7BCF"/>
<stop offset="0.947917" stop-color="#4202F9"/>
</linearGradient>
</defs>
</svg>
