<svg width="127" height="37" viewBox="0 0 127 37" fill="none" xmlns="http://www.w3.org/2000/svg">
<path d="M121.394 1.58451C123.548 1.58451 125.301 3.28645 125.301 5.37803V32.4827C125.301 34.5743 123.548 36.2762 121.394 36.2762H5.07159C2.9173 36.2762 1.16433 34.5743 1.16433 32.4827V5.37803C1.16433 3.28645 2.9173 1.58451 5.07159 1.58451H121.394ZM121.394 0.860589H5.07159C2.51366 0.860589 0.418701 2.89457 0.418701 5.37803V32.4827C0.418701 34.9661 2.51366 37.0001 5.07159 37.0001H121.394C123.952 37.0001 126.047 34.9661 126.047 32.4827V5.37803C126.047 2.89457 123.952 0.860589 121.394 0.860589Z" fill="#A6A6A6"/>
<path d="M9.43131 7.67183C9.15795 7.94965 8.99976 8.38219 8.99976 8.94236V28.923C8.99976 29.4832 9.15795 29.9157 9.43131 30.1935L9.49878 30.2545L21.0309 19.0626V18.7983L9.49878 7.60633L9.43131 7.67183Z" fill="white"/>
<path d="M26.2666 22.795L22.4268 19.0625V18.7982L26.2712 15.0657L26.3573 15.1143L30.9101 17.6293C32.2094 18.3431 32.2094 19.5176 30.9101 20.2359L26.3573 22.7465L26.2666 22.795Z" fill="white"/>
<path d="M25.6593 23.4415L21.7288 19.6254L10.1292 30.8885C10.5607 31.329 11.2645 31.382 12.0647 30.9416L25.6593 23.4415Z" fill="white"/>
<path d="M25.6593 14.4194L12.0647 6.91929C11.2645 6.48335 10.5607 6.53643 10.1292 6.97688L21.7288 18.2355L25.6593 14.4194Z" fill="white"/>
<path d="M44.5443 10.1156C44.5443 10.8701 44.3117 11.4743 43.8534 11.9249C43.3264 12.4591 42.6401 12.7279 41.7991 12.7279C40.9954 12.7279 40.309 12.4546 39.746 11.9158C39.1819 11.3692 38.9004 10.6984 38.9004 9.89542C38.9004 9.09245 39.1819 8.42161 39.746 7.87952C40.309 7.33629 40.9954 7.06299 41.7991 7.06299C42.1993 7.06299 42.5808 7.14317 42.9449 7.29225C43.3078 7.44245 43.6033 7.64574 43.8173 7.89646L43.3311 8.37305C42.9577 7.94502 42.4494 7.73383 41.7991 7.73383C41.2129 7.73383 40.7045 7.9326 40.273 8.33352C39.8461 8.73557 39.6321 9.25621 39.6321 9.89542C39.6321 10.5346 39.8461 11.0598 40.273 11.4618C40.7045 11.8582 41.2129 12.0615 41.7991 12.0615C42.4215 12.0615 42.9449 11.8582 43.3579 11.4573C43.63 11.1919 43.7848 10.826 43.8255 10.3585H41.7991V9.70569H44.5025C44.535 9.84686 44.5443 9.98351 44.5443 10.1156Z" fill="white" stroke="white" stroke-width="0.16" stroke-miterlimit="10"/>
<path d="M48.8331 7.85245H46.2938V9.56907H48.583V10.2218H46.2938V11.9385H48.8331V12.6037H45.575V7.18726H48.8331V7.85245Z" fill="white" stroke="white" stroke-width="0.16" stroke-miterlimit="10"/>
<path d="M51.8599 12.6037H51.1411V7.85245H49.5835V7.18726H53.4186V7.85245H51.8599V12.6037Z" fill="white" stroke="white" stroke-width="0.16" stroke-miterlimit="10"/>
<path d="M56.1941 12.6037V7.18726H56.9118V12.6037H56.1941Z" fill="white" stroke="white" stroke-width="0.16" stroke-miterlimit="10"/>
<path d="M60.0931 12.6037H59.38V7.85245H57.8167V7.18726H61.6564V7.85245H60.0931V12.6037Z" fill="white" stroke="white" stroke-width="0.16" stroke-miterlimit="10"/>
<path d="M68.9174 11.9068C68.3672 12.4546 67.6856 12.7279 66.8725 12.7279C66.0547 12.7279 65.3731 12.4546 64.8229 11.9068C64.2738 11.3602 64.0005 10.6894 64.0005 9.89542C64.0005 9.10148 64.2738 8.43064 64.8229 7.88403C65.3731 7.33629 66.0547 7.06299 66.8725 7.06299C67.6809 7.06299 68.3626 7.33629 68.9128 7.88855C69.4665 8.43968 69.7398 9.106 69.7398 9.89542C69.7398 10.6894 69.4665 11.3602 68.9174 11.9068ZM65.3545 11.4528C65.7686 11.8582 66.2723 12.0615 66.8725 12.0615C67.4681 12.0615 67.9764 11.8582 68.3858 11.4528C68.7988 11.0474 69.0082 10.5267 69.0082 9.89542C69.0082 9.26411 68.7988 8.74348 68.3858 8.33804C67.9764 7.9326 67.4681 7.72931 66.8725 7.72931C66.2723 7.72931 65.7686 7.9326 65.3545 8.33804C64.9415 8.74348 64.7322 9.26411 64.7322 9.89542C64.7322 10.5267 64.9415 11.0474 65.3545 11.4528Z" fill="white" stroke="white" stroke-width="0.16" stroke-miterlimit="10"/>
<path d="M70.7483 12.6037V7.18726H71.6207L74.3333 11.3998H74.3648L74.3333 10.3585V7.18726H75.0511V12.6037H74.3019L71.4613 8.18335H71.4299L71.4613 9.22914V12.6037H70.7483Z" fill="white" stroke="white" stroke-width="0.16" stroke-miterlimit="10"/>
<path d="M63.8236 20.5137C61.6379 20.5137 59.8524 22.1287 59.8524 24.3569C59.8524 26.567 61.6379 28.199 63.8236 28.199C66.0139 28.199 67.7995 26.567 67.7995 24.3569C67.7995 22.1287 66.0139 20.5137 63.8236 20.5137ZM63.8236 26.6856C62.6243 26.6856 61.5925 25.7245 61.5925 24.3569C61.5925 22.9712 62.6243 22.027 63.8236 22.027C65.0229 22.027 66.0593 22.9712 66.0593 24.3569C66.0593 25.7245 65.0229 26.6856 63.8236 26.6856ZM55.1588 20.5137C52.9684 20.5137 51.1875 22.1287 51.1875 24.3569C51.1875 26.567 52.9684 28.199 55.1588 28.199C57.3479 28.199 59.13 26.567 59.13 24.3569C59.13 22.1287 57.3479 20.5137 55.1588 20.5137ZM55.1588 26.6856C53.9583 26.6856 52.9231 25.7245 52.9231 24.3569C52.9231 22.9712 53.9583 22.027 55.1588 22.027C56.358 22.027 57.3898 22.9712 57.3898 24.3569C57.3898 25.7245 56.358 26.6856 55.1588 26.6856ZM44.848 21.6916V23.3247H48.8646C48.7471 24.2372 48.433 24.908 47.9514 25.3756C47.3652 25.9403 46.4521 26.567 44.848 26.567C42.3761 26.567 40.4405 24.6302 40.4405 22.2303C40.4405 19.8304 42.3761 17.8936 44.848 17.8936C46.1845 17.8936 47.157 18.4006 47.8747 19.0579L49.06 17.9071C48.0561 16.9765 46.7208 16.2616 44.848 16.2616C41.4583 16.2616 38.6096 18.9394 38.6096 22.2303C38.6096 25.5213 41.4583 28.199 44.848 28.199C46.68 28.199 48.0561 27.6162 49.1379 26.523C50.2465 25.4467 50.592 23.9334 50.592 22.7114C50.592 22.3319 50.5594 21.983 50.5012 21.6916H44.848ZM87.0101 22.9576C86.6832 22.0982 85.6747 20.5137 83.6205 20.5137C81.5848 20.5137 79.89 22.0711 79.89 24.3569C79.89 26.5095 81.5674 28.199 83.8159 28.199C85.634 28.199 86.6832 27.1227 87.1148 26.4959L85.7654 25.6229C85.3153 26.2621 84.7022 26.6856 83.8159 26.6856C82.9353 26.6856 82.3037 26.2937 81.8989 25.5213L87.1927 23.3947L87.0101 22.9576ZM81.6127 24.2372C81.5674 22.7555 82.7981 21.9965 83.6798 21.9965C84.3707 21.9965 84.957 22.3319 85.1524 22.8119L81.6127 24.2372ZM77.31 27.9652H79.0502V16.6716H77.31V27.9652ZM74.4601 21.3697H74.4019C74.0111 20.9202 73.2655 20.5137 72.3209 20.5137C70.3388 20.5137 68.5265 22.2032 68.5265 24.3693C68.5265 26.523 70.3388 28.199 72.3209 28.199C73.2655 28.199 74.0111 27.789 74.4019 27.326H74.4601V27.8771C74.4601 29.3464 73.6516 30.1358 72.3477 30.1358C71.2845 30.1358 70.6249 29.3904 70.3528 28.7637L68.8394 29.3769C69.2756 30.3956 70.4307 31.6492 72.3477 31.6492C74.388 31.6492 76.1095 30.4837 76.1095 27.6478V20.7475H74.4601V21.3697ZM72.4698 26.6856C71.2705 26.6856 70.2667 25.711 70.2667 24.3693C70.2667 23.0152 71.2705 22.027 72.4698 22.027C73.6516 22.027 74.5834 23.0152 74.5834 24.3693C74.5834 25.711 73.6516 26.6856 72.4698 26.6856ZM95.1573 16.6716H90.9953V27.9652H92.7308V23.6861H95.1573C97.0847 23.6861 98.975 22.3319 98.975 20.1783C98.975 18.0257 97.0801 16.6716 95.1573 16.6716ZM95.2026 22.1151H92.7308V18.2425H95.2026C96.4985 18.2425 97.2383 19.2872 97.2383 20.1783C97.2383 21.0524 96.4985 22.1151 95.2026 22.1151ZM105.931 20.4922C104.677 20.4922 103.373 21.0298 102.837 22.2213L104.377 22.8481C104.708 22.2213 105.318 22.018 105.962 22.018C106.863 22.018 107.776 22.5431 107.79 23.4703V23.5889C107.476 23.4127 106.803 23.1519 105.976 23.1519C104.318 23.1519 102.627 24.0384 102.627 25.6929C102.627 27.2063 103.986 28.1809 105.513 28.1809C106.681 28.1809 107.326 27.6693 107.731 27.0741H107.79V27.9471H109.466V23.6149C109.466 21.6125 107.926 20.4922 105.931 20.4922ZM105.722 26.6811C105.154 26.6811 104.363 26.4078 104.363 25.7245C104.363 24.8504 105.349 24.515 106.203 24.515C106.967 24.515 107.326 24.6788 107.79 24.8945C107.654 25.9403 106.727 26.6811 105.722 26.6811ZM115.573 20.7396L113.578 25.6353H113.519L111.456 20.7396H109.585L112.684 27.5812L110.915 31.3883H112.729L117.504 20.7396H115.573ZM99.9288 27.9652H101.669V16.6716H99.9288V27.9652Z" fill="white"/>
</svg>
